M48
METRIC,LZ,000.000
;FILE_FORMAT=3:3
;TYPE=PLATED
;Layer: PTH_Through
;EasyEDA v6.5.46, 2024-09-04 11:29:39
;0d1ad1a6d3d2480fb9f752d3d829f409,4158319e45914ae5b625cfe5b216a57e,10
;Gerber Generator version 0.2
;Holesize 1 = 0.712 mm
T01C0.712
;Holesize 2 = 0.800 mm
T02C0.800
;Holesize 3 = 0.849 mm
T03C0.849
;Holesize 4 = 1.101 mm
T04C1.101
;Holesize 5 = 1.200 mm
T05C1.200
%
G05
G90
T01
X050038Y041656
X060198Y041656
X087122Y069596
X097282Y069596
X087249Y060325
X097409Y060325
T02
X106611Y070739
X104209Y070739
X106611Y062611
X104209Y062611
X096743Y080896G85X096743Y080902
X098742Y080896G85X098742Y080902
X100744Y080896G85X100744Y080902
X102742Y080896G85X102742Y080902
X104744Y080896G85X104744Y080902
X106743Y080896G85X106743Y080902
X108742Y080896G85X108742Y080902
T03
X080645Y069977
X080645Y072517
X080645Y075057
X080645Y077597
X080645Y080137
X080645Y082677
X080645Y085217
X080645Y087757
X080645Y090297
X080645Y092837
X080645Y048133
X080645Y050673
X080645Y053213
X080645Y055753
X080645Y058293
X080645Y060833
X080645Y063373
X080645Y065913
X032385Y060833
X032385Y058293
X032385Y055753
X032385Y053213
X032385Y050673
X032385Y048133
X032385Y083693
X032385Y081153
X032385Y078613
X032385Y076073
X032385Y073533
X032385Y070993
X032385Y068453
X032385Y065913
T04
X018542Y083905
X018542Y081365
X018542Y078825
X018542Y061651
X018542Y059111
X018542Y056571
X018542Y039398
X018542Y036858
X018542Y034318
X018542Y017145
X018542Y014605
X018542Y012065
X059182Y035179
X056642Y035179
X054102Y035179
T05
X102362Y093853
X099822Y093853
X096520Y093853
X093980Y093853
M30
