G04 Layer: TopSolderMaskLayer*
G04 EasyEDA v6.5.46, 2024-09-04 11:29:39*
G04 0d1ad1a6d3d2480fb9f752d3d829f409,4158319e45914ae5b625cfe5b216a57e,10*
G04 Gerber Generator version 0.2*
G04 Scale: 100 percent, Rotated: No, Reflected: No *
G04 Dimensions in millimeters *
G04 leading zeros omitted , absolute positions ,4 integer and 5 decimal *
%FSLAX45Y45*%
%MOMM*%

%AMMACRO1*4,1,8,-0.8744,-0.762,-0.9041,-0.732,-0.9041,0.7323,-0.8744,0.762,0.8741,0.762,0.9041,0.7323,0.9041,-0.732,0.8741,-0.762,-0.8744,-0.762,0*%
%AMMACRO2*4,1,8,-0.8745,-0.762,-0.9042,-0.732,-0.9042,0.7323,-0.8745,0.762,0.8743,0.762,0.9042,0.7323,0.9042,-0.732,0.8743,-0.762,-0.8745,-0.762,0*%
%AMMACRO3*4,1,8,-0.8745,-0.7619,-0.9042,-0.7319,-0.9042,0.7322,-0.8745,0.7619,0.8743,0.7619,0.9042,0.7322,0.9042,-0.7319,0.8743,-0.7619,-0.8745,-0.7619,0*%
%AMMACRO4*4,1,8,-0.8744,-0.7619,-0.9041,-0.7319,-0.9041,0.7322,-0.8744,0.7619,0.8741,0.7619,0.9041,0.7322,0.9041,-0.7319,0.8741,-0.7619,-0.8744,-0.7619,0*%
%AMMACRO5*4,1,8,-0.8711,-0.9008,-0.9008,-0.8708,-0.9008,0.8711,-0.8711,0.9008,0.8708,0.9008,0.9008,0.8711,0.9008,-0.8708,0.8708,-0.9008,-0.8711,-0.9008,0*%
%AMMACRO6*4,1,8,-0.871,-0.9008,-0.9007,-0.8708,-0.9007,0.8711,-0.871,0.9008,0.8707,0.9008,0.9007,0.8711,0.9007,-0.8708,0.8707,-0.9008,-0.871,-0.9008,0*%
%AMMACRO7*4,1,8,-1.0211,-1.0508,-1.0508,-1.0208,-1.0508,1.0211,-1.0211,1.0508,1.0208,1.0508,1.0508,1.0211,1.0508,-1.0208,1.0208,-1.0508,-1.0211,-1.0508,0*%
%AMMACRO8*4,1,8,-0.7172,-0.7766,-0.7766,-0.7169,-0.7766,0.7172,-0.7172,0.7766,0.7169,0.7766,0.7766,0.7172,0.7766,-0.7169,0.7169,-0.7766,-0.7172,-0.7766,0*%
%ADD10MACRO1*%
%ADD11MACRO2*%
%ADD12MACRO3*%
%ADD13MACRO4*%
%ADD14C,1.8016*%
%ADD15MACRO5*%
%ADD16MACRO6*%
%ADD17C,2.0066*%
%ADD18C,1.5016*%
%ADD19MACRO7*%
%ADD20C,2.1016*%
%ADD21C,1.5532*%
%ADD22MACRO8*%

%LPD*%
D10*
G01*
X8064487Y6997700D03*
D11*
G01*
X8064474Y7251700D03*
G01*
X8064474Y7505700D03*
G01*
X8064474Y7759700D03*
G01*
X8064474Y8013700D03*
G01*
X8064474Y8267700D03*
G01*
X8064474Y8521700D03*
G01*
X8064474Y8775700D03*
G01*
X8064474Y9029700D03*
G01*
X8064474Y9283700D03*
D12*
G01*
X8064474Y4813312D03*
G01*
X8064474Y5067312D03*
G01*
X8064474Y5321312D03*
D13*
G01*
X8064487Y5575312D03*
G01*
X8064487Y5829312D03*
D10*
G01*
X8064487Y6083300D03*
G01*
X8064487Y6337300D03*
G01*
X8064487Y6591300D03*
D11*
G01*
X3238500Y6083300D03*
G01*
X3238500Y5829300D03*
G01*
X3238500Y5575300D03*
G01*
X3238500Y5321300D03*
G01*
X3238500Y5067300D03*
G01*
X3238500Y4813300D03*
G01*
X3238500Y8369300D03*
G01*
X3238500Y8115300D03*
G01*
X3238500Y7861300D03*
G01*
X3238500Y7607300D03*
G01*
X3238500Y7353300D03*
G01*
X3238500Y7099300D03*
G01*
X3238500Y6845300D03*
G01*
X3238500Y6591300D03*
D14*
G01*
X1854225Y8390458D03*
G01*
X1854225Y8136458D03*
D15*
G01*
X1854212Y7882470D03*
D14*
G01*
X1854225Y6165138D03*
G01*
X1854225Y5911138D03*
D15*
G01*
X1854212Y5657151D03*
D16*
G01*
X1854200Y3939832D03*
D14*
G01*
X1854225Y3685819D03*
G01*
X1854225Y3431819D03*
D16*
G01*
X1854200Y1714487D03*
D14*
G01*
X1854225Y1460500D03*
G01*
X1854225Y1206500D03*
D15*
G01*
X5918212Y3517887D03*
D14*
G01*
X5664200Y3517874D03*
G01*
X5410200Y3517874D03*
D17*
G01*
X5003800Y4165600D03*
G01*
X6019800Y4165600D03*
G01*
X8712200Y6959600D03*
G01*
X9728200Y6959600D03*
G01*
X8724900Y6032500D03*
G01*
X9740900Y6032500D03*
D18*
G01*
X10661141Y7073900D03*
G01*
X10420858Y7073900D03*
G01*
X10661141Y6261100D03*
G01*
X10420858Y6261100D03*
D19*
G01*
X10236200Y9385300D03*
D20*
G01*
X9982200Y9385300D03*
G01*
X9652000Y9385300D03*
G01*
X9398000Y9385300D03*
D21*
G01*
X9674301Y8089900D03*
G01*
X9874300Y8089900D03*
G01*
X10074300Y8089900D03*
G01*
X10274300Y8089900D03*
G01*
X10474299Y8089900D03*
D22*
G01*
X10674311Y8089887D03*
D21*
G01*
X10874298Y8089900D03*
M02*
