G04 Layer: TopLayer*
G04 EasyEDA v6.5.46, 2024-09-04 11:29:39*
G04 0d1ad1a6d3d2480fb9f752d3d829f409,4158319e45914ae5b625cfe5b216a57e,10*
G04 Gerber Generator version 0.2*
G04 Scale: 100 percent, Rotated: No, Reflected: No *
G04 Dimensions in millimeters *
G04 leading zeros omitted , absolute positions ,4 integer and 5 decimal *
%FSLAX45Y45*%
%MOMM*%

%ADD10C,0.2540*%
%ADD11R,1.7069X1.4224*%
%ADD12C,1.7000*%
%ADD13R,1.7000X1.7000*%
%ADD14C,1.9050*%
%ADD15C,1.4000*%
%ADD16R,2.0000X2.0000*%
%ADD17C,2.0000*%
%ADD18C,1.3500*%
%ADD19R,1.3500X1.3500*%

%LPD*%
D10*
X10274300Y8089900D02*
G01*
X9956800Y7772400D01*
X8064500Y7772400D01*
X8064500Y7759700D01*
X9398000Y9385300D02*
G01*
X9398000Y9690100D01*
X7213600Y9690100D01*
X3619500Y6096000D01*
X3619500Y5245100D01*
X3441700Y5067300D01*
X3238500Y5067300D01*
X8064500Y6997700D02*
G01*
X5740400Y6997700D01*
X5003800Y6261100D01*
X5003800Y4165600D01*
X3238500Y7099300D02*
G01*
X3086100Y7099300D01*
X2303018Y7882381D01*
X1854200Y7882381D01*
X9652000Y9385300D02*
G01*
X9652000Y9131300D01*
X9029700Y9131300D01*
X9029700Y9588500D01*
X7454900Y9588500D01*
X3822700Y5956300D01*
X3822700Y4813300D01*
X3238500Y4813300D01*
X1854212Y8390463D02*
G01*
X2484963Y8390463D01*
X2781300Y8686800D01*
X3632200Y8686800D01*
X3632200Y6413500D01*
X3302000Y6083300D01*
X3238500Y6083300D01*
X10236200Y9385305D02*
G01*
X10674299Y8947205D01*
X10674299Y8089900D01*
X3238500Y5575300D02*
G01*
X2667000Y5575300D01*
X2197100Y5105400D01*
X2197100Y3685794D01*
X1854200Y3685794D01*
X3238500Y5321300D02*
G01*
X2832100Y5321300D01*
X2832100Y2438400D01*
X1854200Y1460500D01*
X1854200Y7882381D02*
G01*
X1608581Y7882381D01*
X1460500Y7734300D01*
X1460500Y5829300D01*
X1632712Y5657087D01*
X1854200Y5657087D01*
X1854212Y3939821D02*
G01*
X1679221Y3939821D01*
X1435100Y3695700D01*
X1435100Y2019300D01*
X1739902Y1714497D01*
X1854212Y1714497D01*
X3238500Y5829300D02*
G01*
X2189988Y5829300D01*
X1854200Y6165087D01*
X9728200Y6959600D02*
G01*
X10306558Y6959600D01*
X10420858Y7073900D01*
X9740900Y6032500D02*
G01*
X10179558Y6032500D01*
X10408158Y6261100D01*
X5003800Y4165600D02*
G01*
X5003800Y3924274D01*
X5410200Y3517874D01*
X10661141Y7073900D02*
G01*
X10483341Y7251700D01*
X8064474Y7251700D01*
X10074300Y8089900D02*
G01*
X9896500Y8267700D01*
X8064474Y8267700D01*
X1854212Y5657143D02*
G01*
X1854212Y3939821D01*
X10648441Y6261100D02*
G01*
X10318241Y6591300D01*
X8064500Y6591300D01*
X8724900Y6032500D02*
G01*
X8724900Y4610100D01*
X7632700Y3517900D01*
X5918200Y3517900D01*
X8064500Y8013700D02*
G01*
X9309100Y8013700D01*
X9410700Y7912100D01*
X9874250Y7912100D01*
X9874250Y8089900D01*
X8064500Y8521700D02*
G01*
X10242550Y8521700D01*
X10674350Y8089900D01*
X10474197Y8089900D02*
G01*
X10474197Y7946897D01*
X10033000Y7505700D01*
X8064500Y7505700D01*
X6019800Y4165600D02*
G01*
X6019800Y4013200D01*
X5664200Y3657600D01*
X5664200Y3517900D01*
D11*
G01*
X8064500Y6997700D03*
G01*
X8064474Y7251700D03*
G01*
X8064474Y7505700D03*
G01*
X8064474Y7759700D03*
G01*
X8064474Y8013700D03*
G01*
X8064474Y8267700D03*
G01*
X8064474Y8521700D03*
G01*
X8064474Y8775700D03*
G01*
X8064474Y9029700D03*
G01*
X8064474Y9283700D03*
G01*
X8064474Y4813300D03*
G01*
X8064474Y5067300D03*
G01*
X8064474Y5321300D03*
G01*
X8064500Y5575300D03*
G01*
X8064500Y5829300D03*
G01*
X8064500Y6083300D03*
G01*
X8064500Y6337300D03*
G01*
X8064500Y6591300D03*
G01*
X3238500Y6083300D03*
G01*
X3238500Y5829300D03*
G01*
X3238500Y5575300D03*
G01*
X3238500Y5321300D03*
G01*
X3238500Y5067300D03*
G01*
X3238500Y4813300D03*
G01*
X3238500Y8369300D03*
G01*
X3238500Y8115300D03*
G01*
X3238500Y7861300D03*
G01*
X3238500Y7607300D03*
G01*
X3238500Y7353300D03*
G01*
X3238500Y7099300D03*
G01*
X3238500Y6845300D03*
G01*
X3238500Y6591300D03*
D12*
G01*
X1854225Y8390458D03*
G01*
X1854225Y8136458D03*
D13*
G01*
X1854225Y7882458D03*
D12*
G01*
X1854225Y6165138D03*
G01*
X1854225Y5911138D03*
D13*
G01*
X1854225Y5657138D03*
G01*
X1854200Y3939819D03*
D12*
G01*
X1854225Y3685819D03*
G01*
X1854225Y3431819D03*
D13*
G01*
X1854200Y1714500D03*
D12*
G01*
X1854225Y1460500D03*
G01*
X1854225Y1206500D03*
D13*
G01*
X5918200Y3517900D03*
D12*
G01*
X5664200Y3517874D03*
G01*
X5410200Y3517874D03*
D14*
G01*
X5003800Y4165600D03*
G01*
X6019800Y4165600D03*
G01*
X8712200Y6959600D03*
G01*
X9728200Y6959600D03*
G01*
X8724900Y6032500D03*
G01*
X9740900Y6032500D03*
D15*
G01*
X10661141Y7073900D03*
G01*
X10420858Y7073900D03*
G01*
X10661141Y6261100D03*
G01*
X10420858Y6261100D03*
D16*
G01*
X10236200Y9385300D03*
D17*
G01*
X9982200Y9385300D03*
G01*
X9652000Y9385300D03*
G01*
X9398000Y9385300D03*
D18*
G01*
X9674301Y8089900D03*
G01*
X9874300Y8089900D03*
G01*
X10074300Y8089900D03*
G01*
X10274300Y8089900D03*
G01*
X10474299Y8089900D03*
D19*
G01*
X10674299Y8089900D03*
D18*
G01*
X10874298Y8089900D03*
M02*
