G04 Layer: BottomLayer*
G04 EasyEDA v6.5.46, 2024-09-04 11:29:39*
G04 0d1ad1a6d3d2480fb9f752d3d829f409,4158319e45914ae5b625cfe5b216a57e,10*
G04 Gerber Generator version 0.2*
G04 Scale: 100 percent, Rotated: No, Reflected: No *
G04 Dimensions in millimeters *
G04 leading zeros omitted , absolute positions ,4 integer and 5 decimal *
%FSLAX45Y45*%
%MOMM*%

%ADD10C,0.2540*%
%ADD11R,1.7069X1.4224*%
%ADD12C,1.7000*%
%ADD13R,1.7000X1.7000*%
%ADD14C,1.9050*%
%ADD15C,1.4000*%
%ADD16R,2.0000X2.0000*%
%ADD17C,2.0000*%
%ADD18C,1.3500*%
%ADD19R,1.3500X1.3500*%

%LPD*%
D10*
X8712200Y6959600D02*
G01*
X8712200Y8115300D01*
X8305800Y8521700D01*
X8064474Y8521700D01*
X3238500Y7353300D02*
G01*
X2997200Y7353300D01*
X2214118Y8136381D01*
X1854200Y8136381D01*
X1854200Y3431794D02*
G01*
X2463800Y2822194D01*
X2463800Y1206500D01*
X1854200Y1206500D01*
X9982200Y9385300D02*
G01*
X9982200Y9652000D01*
X5867400Y9652000D01*
X3568700Y7353300D01*
X3238500Y7353300D01*
X3238500Y7353300D02*
G01*
X3581400Y7353300D01*
X5664200Y5270500D01*
X5664200Y3517900D01*
X1854212Y3431821D02*
G01*
X2476500Y3431821D01*
X2476500Y6832600D01*
X2997200Y7353300D01*
X3238500Y7353300D01*
X3238500Y7353300D02*
G01*
X2997200Y7353300D01*
X2476500Y6832600D01*
X2476500Y5911087D01*
X1854200Y5911087D01*
X8712200Y6959600D02*
G01*
X8712200Y7086600D01*
X9017000Y7391400D01*
X10312400Y7391400D01*
X10674350Y7753350D01*
X10674350Y8089900D01*
X8724900Y6032500D02*
G01*
X8534400Y6032500D01*
X8534400Y6959600D01*
X8712200Y6959600D01*
X9982200Y9385300D02*
G01*
X9982200Y9182100D01*
X10874247Y8290052D01*
X10874247Y8089900D01*
D11*
G01*
X8064500Y6997700D03*
G01*
X8064474Y7251700D03*
G01*
X8064474Y7505700D03*
G01*
X8064474Y7759700D03*
G01*
X8064474Y8013700D03*
G01*
X8064474Y8267700D03*
G01*
X8064474Y8521700D03*
G01*
X8064474Y8775700D03*
G01*
X8064474Y9029700D03*
G01*
X8064474Y9283700D03*
G01*
X8064474Y4813300D03*
G01*
X8064474Y5067300D03*
G01*
X8064474Y5321300D03*
G01*
X8064500Y5575300D03*
G01*
X8064500Y5829300D03*
G01*
X8064500Y6083300D03*
G01*
X8064500Y6337300D03*
G01*
X8064500Y6591300D03*
G01*
X3238500Y6083300D03*
G01*
X3238500Y5829300D03*
G01*
X3238500Y5575300D03*
G01*
X3238500Y5321300D03*
G01*
X3238500Y5067300D03*
G01*
X3238500Y4813300D03*
G01*
X3238500Y8369300D03*
G01*
X3238500Y8115300D03*
G01*
X3238500Y7861300D03*
G01*
X3238500Y7607300D03*
G01*
X3238500Y7353300D03*
G01*
X3238500Y7099300D03*
G01*
X3238500Y6845300D03*
G01*
X3238500Y6591300D03*
D12*
G01*
X1854225Y8390458D03*
G01*
X1854225Y8136458D03*
D13*
G01*
X1854225Y7882458D03*
D12*
G01*
X1854225Y6165138D03*
G01*
X1854225Y5911138D03*
D13*
G01*
X1854225Y5657138D03*
G01*
X1854200Y3939819D03*
D12*
G01*
X1854225Y3685819D03*
G01*
X1854225Y3431819D03*
D13*
G01*
X1854200Y1714500D03*
D12*
G01*
X1854225Y1460500D03*
G01*
X1854225Y1206500D03*
D13*
G01*
X5918200Y3517900D03*
D12*
G01*
X5664200Y3517874D03*
G01*
X5410200Y3517874D03*
D14*
G01*
X5003800Y4165600D03*
G01*
X6019800Y4165600D03*
G01*
X8712200Y6959600D03*
G01*
X9728200Y6959600D03*
G01*
X8724900Y6032500D03*
G01*
X9740900Y6032500D03*
D15*
G01*
X10661141Y7073900D03*
G01*
X10420858Y7073900D03*
G01*
X10661141Y6261100D03*
G01*
X10420858Y6261100D03*
D16*
G01*
X10236200Y9385300D03*
D17*
G01*
X9982200Y9385300D03*
G01*
X9652000Y9385300D03*
G01*
X9398000Y9385300D03*
D18*
G01*
X9674301Y8089900D03*
G01*
X9874300Y8089900D03*
G01*
X10074300Y8089900D03*
G01*
X10274300Y8089900D03*
G01*
X10474299Y8089900D03*
D19*
G01*
X10674299Y8089900D03*
D18*
G01*
X10874298Y8089900D03*
M02*
